<svg xmlns="http://www.w3.org/2000/svg" viewBox="10925.216 14127.246 121.037 114.357">
  <defs>
    <style>
      .cls-1 {
        fill: #f2944a;
      }

      .cls-2 {
        fill: #ec6b34;
      }

      .cls-3 {
        fill: #fac47f;
      }

      .cls-4 {
        fill: #0376bb;
      }

      .cls-5 {
        fill: #8bd1ec;
      }

      .cls-6 {
        fill: #40b5e7;
      }

      .cls-7 {
        fill: #fff;
      }
    </style>
  </defs>
  <g id="logotipo-zenta-white" transform="translate(10925.216 14127.246)">
    <g id="Group_95" data-name="Group 95" transform="translate(21.446)">
      <path id="Path_88" data-name="Path 88" class="cls-1" d="M109.614,7.5c-.925.239-1.849.507-2.714.805-5.757,20.044-4.444,37.015-1.014,49.9.328-.388.656-.746,1.014-1.163,6.5-7.606,14.7-19.119,15.928-20.819A78.429,78.429,0,0,1,109.614,7.5Z" transform="translate(-93.687 -5.263)"/>
      <path id="Path_89" data-name="Path 89" class="cls-2" d="M148.953,0C143.614,0,133.89,0,125.3,2.237A78.643,78.643,0,0,0,138.484,30.96a1.182,1.182,0,0,1,.149-.209l6.443-8.739L155.187,8.352a9.958,9.958,0,0,0,1.1-4C156.29,2.386,155.425,0,148.953,0Z" transform="translate(-109.372)"/>
      <path id="Path_90" data-name="Path 90" class="cls-3" d="M85.084,10.2c-.895.3-1.76.6-2.595.954-9.515,4-10.589,7.337-10.589,12.706V58.7s0,7.009,5.727,7.009c1.133,0,3.549-2.3,6.443-5.578C80.639,47.215,79.327,30.244,85.084,10.2Z" transform="translate(-71.9 -7.158)"/>
      <path id="Path_91" data-name="Path 91" class="cls-4" d="M294.56,0c-1.253,0-4.116,2.863-7.427,6.741-.388.447-.746.895-1.133,1.342.418,1.491.805,3.013,1.133,4.564a100.9,100.9,0,0,1,.179,42.8q1.253-.4,2.416-.895c9.545-4,10.589-7.337,10.589-12.676V7.039S300.287,0,294.56,0Z" transform="translate(-222.141)"/>
      <path id="Path_92" data-name="Path 92" class="cls-5" d="M177.8,148.231a8.214,8.214,0,0,0-1.1,4c0,1.969.865,4.355,7.337,4.355,5.339,0,15.063,0,23.653-2.237A71.335,71.335,0,0,1,184.127,139.7C184.1,139.7,178.37,147.246,177.8,148.231Z" transform="translate(-145.441 -98.032)"/>
      <path id="Path_93" data-name="Path 93" class="cls-6" d="M227.807,31.664c-.358-1.551-.716-3.042-1.133-4.564-6.83,8.2-14.943,19.686-14.943,19.686l-6.443,8.739-3.788,5.13A71.824,71.824,0,0,0,225.063,75.3c.925-.239,1.849-.507,2.714-.805.06-.03.119-.03.179-.06a100.239,100.239,0,0,0,2.207-21A97.831,97.831,0,0,0,227.807,31.664Z" transform="translate(-162.844 -19.017)"/>
    </g>
    <g id="Group_98" data-name="Group 98" transform="translate(0 67.081)">
      <g id="Group_96" data-name="Group 96">
        <path id="Path_94" data-name="Path 94" class="cls-7" d="M19.984,268.488H0v-2.535l15.092-19.119H.716V244H19.507v2.8L4.713,265.625H19.984Z" transform="translate(0 -238.303)"/>
        <path id="Path_95" data-name="Path 95" class="cls-7" d="M92.543,267.653c-4.086,0-7.337-1.1-9.694-3.311s-3.549-5.25-3.549-9.157q0-5.906,3.311-9.4a11.636,11.636,0,0,1,8.859-3.49,11.252,11.252,0,0,1,8.262,3.013,10.77,10.77,0,0,1,3.042,7.964v2.356H83.625c.089,2.863.895,5.041,2.476,6.532a9.144,9.144,0,0,0,6.592,2.237,24.887,24.887,0,0,0,8.859-1.641v3.311a24.117,24.117,0,0,1-4.206,1.223A27.929,27.929,0,0,1,92.543,267.653Zm-1.014-22.34a7.22,7.22,0,0,0-5.279,1.909,8.355,8.355,0,0,0-2.327,5.309H98.3a7.608,7.608,0,0,0-1.76-5.369A6.6,6.6,0,0,0,91.529,245.313Z" transform="translate(-55.647 -237.11)"/>
        <path id="Path_96" data-name="Path 96" class="cls-7" d="M197.321,267.435V251.508a5.871,5.871,0,0,0-1.521-4.414c-1.014-.984-2.595-1.462-4.743-1.462-2.863,0-4.921.686-6.264,2.058-1.312,1.372-2,3.609-2,6.771v12.975h-4.3V242.948h3.37l.686,3.341h-.239a8.277,8.277,0,0,1,3.7-2.8,13.647,13.647,0,0,1,5.279-.984q5.1,0,7.7,2.148c1.73,1.432,2.565,3.7,2.565,6.83v15.987h-4.235Z" transform="translate(-125.259 -237.251)"/>
        <path id="Path_97" data-name="Path 97" class="cls-7" d="M281.068,252.4a16.457,16.457,0,0,0,2.118-.149,16.176,16.176,0,0,0,1.611-.3V254.7a8.6,8.6,0,0,1-1.969.477,17.2,17.2,0,0,1-2.326.179c-5.22,0-7.845-2.446-7.845-7.337V233.431H268.6V230.6h3.937l.716-5.7h3.46v5.7H284.8v2.863h-8.083v14.377a4.7,4.7,0,0,0,1.163,3.4A4.328,4.328,0,0,0,281.068,252.4Z" transform="translate(-188.485 -224.9)"/>
        <path id="Path_98" data-name="Path 98" class="cls-7" d="M351.081,266.172l-.835-3.579h-.209a11.274,11.274,0,0,1-4.086,3.192,13.157,13.157,0,0,1-5.071.835,9.7,9.7,0,0,1-6.383-1.909,6.664,6.664,0,0,1-2.3-5.458q0-7.606,13.243-7.964l4.653-.149v-1.551a5.961,5.961,0,0,0-1.372-4.355,6.027,6.027,0,0,0-4.414-1.4,19.229,19.229,0,0,0-7.725,1.909l-1.283-2.893a22.049,22.049,0,0,1,4.414-1.581,20.556,20.556,0,0,1,4.832-.567c3.251,0,5.667.656,7.248,2s2.356,3.46,2.356,6.383v17.091Zm-9.545-2.714a8.994,8.994,0,0,0,6.115-1.909,6.577,6.577,0,0,0,2.237-5.309v-2.207l-4.176.149c-3.311.119-5.727.567-7.188,1.372a4.031,4.031,0,0,0-2.207,3.788,3.538,3.538,0,0,0,1.372,3.042A6.147,6.147,0,0,0,341.536,263.458Z" transform="translate(-233.115 -235.987)"/>
      </g>
      <g id="Group_97" data-name="Group 97" transform="translate(0.089 34.391)">
        <path id="Path_99" data-name="Path 99" class="cls-7" d="M.3,341.384V340.4H7.488v.984H4.446v7.934h-1.1v-7.934Z" transform="translate(-0.3 -340.34)"/>
        <path id="Path_100" data-name="Path 100" class="cls-7" d="M27.425,354.2a3.646,3.646,0,0,1-2.714,1.133,3.266,3.266,0,1,1-.06-6.532c1.939,0,3.4,1.193,3.162,3.7H22.444a2.134,2.134,0,0,0,2.3,1.879,2.652,2.652,0,0,0,2-.805l.686.626ZM26.8,351.6a1.9,1.9,0,0,0-2.118-1.879,2.145,2.145,0,0,0-2.237,1.879Z" transform="translate(-15.107 -346.235)"/>
        <path id="Path_101" data-name="Path 101" class="cls-7" d="M51.337,354.418a3.226,3.226,0,0,1-2.356.984,3.251,3.251,0,1,1,0-6.5,3.181,3.181,0,0,1,2.3.954l-.656.686a2.228,2.228,0,0,0-1.581-.626,2.176,2.176,0,0,0-2.267,2.267,2.136,2.136,0,0,0,2.237,2.267,2.3,2.3,0,0,0,1.64-.656l.686.626Z" transform="translate(-32.159 -346.305)"/>
        <path id="Path_102" data-name="Path 102" class="cls-7" d="M68.4,348.89h.954l.06,1.014a2.579,2.579,0,0,1,2.148-1.1,2.687,2.687,0,0,1,2.774,2.923v3.49H73.292v-3.46a1.788,1.788,0,0,0-1.909-1.969,1.963,1.963,0,0,0-1.939,2.058v3.37H68.4V348.89Z" transform="translate(-48.088 -346.235)"/>
        <path id="Path_103" data-name="Path 103" class="cls-7" d="M95.651,348.7a3.281,3.281,0,1,1-3.251,3.311A3.139,3.139,0,0,1,95.651,348.7Zm.03.954a2.211,2.211,0,0,0-2.237,2.356,2.226,2.226,0,1,0,2.237-2.356Z" transform="translate(-64.929 -346.165)"/>
        <path id="Path_104" data-name="Path 104" class="cls-7" d="M120.044,349.318H119V340.4h1.044Z" transform="translate(-83.595 -340.34)"/>
        <path id="Path_105" data-name="Path 105" class="cls-7" d="M130.351,348.7a3.281,3.281,0,1,1-3.251,3.311A3.139,3.139,0,0,1,130.351,348.7Zm.03.954a2.211,2.211,0,0,0-2.237,2.356,2.226,2.226,0,1,0,2.237-2.356Z" transform="translate(-89.279 -346.165)"/>
        <path id="Path_106" data-name="Path 106" class="cls-7" d="M155.341,357.075c1.074,0,2.207-.388,2.207-1.491,0-1.014-1.044-1.521-2.207-1.521a3.011,3.011,0,0,1-3.341-3.1,3.136,3.136,0,0,1,3.341-3.132,3.426,3.426,0,0,1,1.79.477l.686-.805.746.6-.716.835a2.787,2.787,0,0,1,.805,2.028,2.57,2.57,0,0,1-1.76,2.565,2.082,2.082,0,0,1,1.73,2.058c0,1.641-1.611,2.476-3.281,2.476-1.909,0-3.251-.984-3.221-2.684h1.014C153.1,356.568,154.207,357.075,155.341,357.075Zm.03-3.907a2.174,2.174,0,0,0,2.267-2.177,2.3,2.3,0,0,0-4.593,0A2.169,2.169,0,0,0,155.37,353.167Z" transform="translate(-106.752 -345.323)"/>
        <path id="Path_107" data-name="Path 107" class="cls-7" d="M179.356,340.3h1.133v.03l-.895,1.67H178.7v-.06Zm.477,2.714H178.76v6.2h1.074Z" transform="translate(-125.489 -340.27)"/>
        <path id="Path_108" data-name="Path 108" class="cls-7" d="M192.478,355.213l-.03-1.133a2.7,2.7,0,0,1-2.326,1.283,3.281,3.281,0,0,1,.03-6.562,2.628,2.628,0,0,1,2.327,1.253v-1.133h1.014v6.293Zm-2.3-5.429a2.3,2.3,0,0,0,0,4.593c3.013.03,3.013-4.593,0-4.593Z" transform="translate(-131.243 -346.235)"/>
        <path id="Path_109" data-name="Path 109" class="cls-7" d="M228.078,347.548h-4.683l-.775,1.67H220.8l4-8.918h1.849l4,8.918h-1.849Zm-2.356-5.369-1.67,3.788h3.311Z" transform="translate(-155.032 -340.27)"/>
        <path id="Path_110" data-name="Path 110" class="cls-7" d="M259.076,355.283v-3.37c0-.835-.447-1.581-1.283-1.581a1.437,1.437,0,0,0-1.342,1.581v3.37H254.9V348.99h1.432l.119.776a2.049,2.049,0,0,1,3.52.3,2.266,2.266,0,0,1,2.118-1.133c1.79,0,2.655,1.1,2.655,2.983v3.4h-1.551v-3.4c0-.835-.358-1.521-1.193-1.521a1.433,1.433,0,0,0-1.372,1.551v3.37h-1.551Z" transform="translate(-178.961 -346.305)"/>
        <path id="Path_111" data-name="Path 111" class="cls-7" d="M293.849,341.095a.925.925,0,0,1-1.849,0A.925.925,0,0,1,293.849,341.095Zm-1.7,1.76v6.323H293.7v-6.323Z" transform="translate(-204.995 -340.2)"/>
        <path id="Path_112" data-name="Path 112" class="cls-7" d="M305.879,347l1.133.865-.716.895a2.662,2.662,0,0,1,.656,1.849,2.537,2.537,0,0,1-1.312,2.356,2.151,2.151,0,0,1,1.312,2.088c0,1.73-1.312,2.8-3.162,2.8a2.889,2.889,0,0,1-3.191-2.8h1.551a1.478,1.478,0,0,0,1.641,1.342c.895,0,1.581-.477,1.581-1.342s-.805-1.253-1.581-1.253a2.938,2.938,0,0,1-3.191-3.162,3.069,3.069,0,0,1,3.191-3.191,2.392,2.392,0,0,1,1.432.358Zm-3.7,3.639a1.645,1.645,0,1,0,3.281,0,1.649,1.649,0,0,0-1.641-1.76A1.6,1.6,0,0,0,302.181,350.639Z" transform="translate(-211.03 -344.972)"/>
        <path id="Path_113" data-name="Path 113" class="cls-7" d="M328.839,348.848h1.491v6.294h-1.461l-.09-.925a2.34,2.34,0,0,1-2.028,1.1,3.311,3.311,0,0,1,.03-6.622,2.3,2.3,0,0,1,2,1.014Zm-3.788,3.132a1.8,1.8,0,0,0,1.849,1.909c2.446,0,2.446-3.818,0-3.818A1.8,1.8,0,0,0,325.051,351.98Z" transform="translate(-227.099 -346.163)"/>
        <path id="Path_114" data-name="Path 114" class="cls-7" d="M351.181,340.26v3.46a2.571,2.571,0,0,1,2.058-1.014,3,3,0,0,1,3.192,3.281,3.091,3.091,0,0,1-3.251,3.281,2.291,2.291,0,0,1-2.028-1.014l-.089.865H349.6V340.2h1.581Zm.119,5.757a1.805,1.805,0,1,0,3.609,0,1.755,1.755,0,0,0-1.79-1.849A1.8,1.8,0,0,0,351.3,346.016Z" transform="translate(-245.414 -340.2)"/>
        <path id="Path_115" data-name="Path 115" class="cls-7" d="M377.251,340.4v8.918H375.7V340.4Z" transform="translate(-263.729 -340.34)"/>
        <path id="Path_116" data-name="Path 116" class="cls-7" d="M385.441,352.477c.089.776.775,1.342,1.879,1.342a2.489,2.489,0,0,0,1.67-.6l.984.984a3.886,3.886,0,0,1-2.714,1.014,3.313,3.313,0,1,1-.119-6.622c2.118,0,3.43,1.312,3.192,3.877Zm3.4-1.283c-.09-.805-.746-1.223-1.641-1.223a1.716,1.716,0,0,0-1.76,1.223Z" transform="translate(-269.414 -346.095)"/>
      </g>
    </g>
  </g>
</svg>
